<svg xmlns="http://www.w3.org/2000/svg" xmlns:xlink="http://www.w3.org/1999/xlink" aria-hidden="true" role="img" class="iconify iconify--logos" width="35.93" height="32" preserveAspectRatio="xMidYMid meet" viewBox="0 0 256 228"><path fill="#00D8FF" d="M210.483 73.824a171.49 171.49 0 0 0-8.24-2.597c.465-1.9.893-3.777 1.273-5.621c6.238-30.281 2.16-54.676-11.769-62.708c-13.355-7.7-35.196.329-57.254 19.526a171.23 171.23 0 0 0-6.375 5.848a155.866 155.866 0 0 0-4.241-3.917C100.759 3.829 77.587-4.822 63.673 3.233C50.33 10.957 46.379 33.89 51.995 62.588a170.974 170.974 0 0 0 1.892 8.48c-3.28.932-6.445 1.924-9.474 2.98C17.309 83.498 0 98.307 0 113.668c0 15.865 18.582 31.778 46.812 41.427a145.52 145.52 0 0 0 6.921 2.165a167.467 167.467 0 0 0-2.01 9.138c-5.354 28.2-1.173 50.591 12.134 58.266c13.744 7.926 36.812-.22 59.273-19.855a145.567 145.567 0 0 0 5.342-4.923a168.064 168.064 0 0 0 6.92 6.314c21.758 18.722 43.246 26.282 56.54 18.586c13.731-7.949 18.194-32.003 12.4-61.268a145.016 145.016 0 0 0-1.535-6.842c1.62-.48 3.21-.974 4.76-1.488c29.348-9.723 48.443-25.443 48.443-41.52c0-15.417-17.868-30.326-45.517-39.844Zm-6.365 70.984c-1.4.463-2.846.91-4.3 1.345c-3.24-10.257-7.365-21.09-12.317-32.28c4.995-11.03 9.155-21.97 12.365-32.54c2.52.755 5 1.54 7.43 2.35c23.69 8.23 38.14 20.738 38.14 29.504c0 8.804-14.61 21.319-38.318 29.621Zm-10.522 38.35c-2.8-5.2-5.59-10.64-8.34-16.25c2.46-.13 4.89-.33 7.3-.59c-2.98 5.74-6.04 11.44-8.96 16.84Zm-17.86 27.16c-6.52 3.76-12.84 6.64-18.78 8.58c-2.2-8.66-4-18.14-5.34-28.14c7.1-1.31 14.46-2.9 21.94-4.75c-2.05 8.58-4.22 17.05-6.82 24.31Zm-62.66-3.07c-1.72-10.52-1.01-20.47 1.95-28.9c7.62 1.81 15.53 3.36 23.56 4.63c-1.48 9.26-2.5 18.62-3.06 27.95c-7.8-1.13-15.7-2.51-23.45-3.68Zm17.1-62.61c-5.32 11.43-11.26 22.85-17.74 33.95c-7.92-1.23-15.66-2.68-23.12-4.34c2.95-9.48 7.27-18.44 12.76-26.68c9.6 1.93 19.44 3.46 29.1 4.07Zm-24.55-34.64c4.75-7.85 10.18-15.03 16.1-21.39c-6.51 6.33-12.61 13.32-18.14 20.75c-2.82-3.03-5.48-6.16-7.96-9.36Zm41.06 2.09c-7.94 1.7-16.08 3.13-24.24 4.26c6.14-11.21 13.08-22.01 20.68-32.15c2.98 4.04 5.97 8.1 8.56 12.89Zm24.34 7.76a170.5 170.5 0 0 0-7.51 4.08c8.1-11.69 15.47-23.79 21.76-36.06a134.77 134.77 0 0 1 3.98 6.88c-6.35 8.74-12.75 17.4-18.23 25.1Zm45.77-5.05c-6 8.75-12.92 17.4-20.41 25.58a134.33 134.33 0 0 0-7.57-4.27c6.7-9.85 12.79-19.98 18.12-30.11c3.37 2.89 6.74 5.91 9.86 8.8Zm3.52-54.48c13.03 7.51 16.9 30.26 11.36 57.2c-.34 1.63-.74 3.3-1.2 5c-12.41-2.36-25.2-4.14-38.21-5.32c-7.84-10.59-16.43-20.76-25.54-30.32c16.3-4.98 30.74-10.58 42.54-16.37l.05.01ZM78.86 8.256C91.8 1.027 110.4 8.04 125.95 26.17c1.12 1.28 2.25 2.6 3.38 3.96c-12.84 5.87-25.4 12.89-37.44 20.94c-12.31-6.75-25.39-12.88-38.87-18.27C57.49 22.37 68.15 13.77 78.86 8.256ZM1.683 113.668c0-8.803 14.6-21.32 38.31-29.61c2.52-.84 5.1-1.63 7.73-2.39c3.24 10.26 7.37 21.09 12.32 32.28c-4.99 11.03-9.16 21.97-12.37 32.54c-2.52-.76-5.05-1.55-7.57-2.36C16.29 134.993 1.683 122.478 1.683 113.668Zm164.828 107.026c-13.03 7.51-35.23 1.68-57.73-17.61c-1.17-1.04-2.35-2.11-3.54-3.21c12.72-5.84 25.18-12.9 37.01-20.95c12.31 6.75 25.39 12.89 38.86 18.27c-10.87 5.41-21.71 11.74-31.6 18.7Zm38.86-56.17c-7.92 1.23-15.66 2.68-23.13 4.34c-2.95-9.48-7.27-18.44-12.76-26.68c9.6-1.93 19.44-3.46 29.1-4.07c5.32 11.43 11.26 22.85 17.74 33.95l-11.95 2.46Zm22.43-5.77c-6.14 11.21-13.08 22-20.68 32.15c-2.98-4.04-5.97-8.1-8.56-12.89c7.94-1.7 16.08-3.13 24.24-4.26l4.99 4.99Zm7.65-71.19c2.46.13 4.9.33 7.3.59c-2.98 5.74-6.04 11.44-8.96 16.84c-2.8-5.2-5.59-10.64-8.34-16.25l9.99-1.18Zm-86.4 90.54c-6.52-3.76-12.84-6.64-18.78-8.58c2.2 8.66 4 18.14 5.34 28.14c7.1 1.31 14.46 2.9 21.94 4.75c2.05-8.58 4.22-17.05 6.82-24.31Zm-62.1-18.05c1.72 10.52 1.01 20.47-1.95 28.9c-7.62-1.81-15.53-3.36-23.56-4.63c1.48-9.26 2.5-18.62 3.06-27.95c7.8 1.13 15.7 2.51 23.45 3.68Zm-17.74-90.81c5.32-11.43 11.26-22.85 17.74-33.95c7.92 1.23 15.66 2.68 23.12 4.34c-2.95 9.48-7.27 18.44-12.76 26.68c-9.6-1.93-19.44-3.46-29.1-4.07Zm24.55 34.64c-4.75 7.85-10.18 15.03-16.1 21.39c6.51-6.33 12.61-13.32 18.14-20.75c2.82 3.03 5.48 6.16 7.96 9.36Zm-41.06-2.09c7.94-1.7 16.08-3.13 24.24-4.26c-6.14 11.21-13.08 22.01-20.68 32.15c-2.98-4.04-5.97-8.1-8.56-12.89Zm-24.34-7.76c6-8.75 12.92-17.4 20.41-25.58c2.56 1.46 5.12 2.96 7.57 4.27c-6.7 9.85-12.79 19.98-18.12 30.11c-3.37-2.89-6.74-5.91-9.86-8.8Zm-45.77 5.05c6.35-8.74 12.75-17.4 18.23-25.1c2.54 1.31 5.09 2.65 7.51 4.08c-8.1 11.69-15.47 23.79-21.76 36.06a134.77 134.77 0 0 0-3.98-6.88Zm-3.52 54.48c-13.03-7.51-16.9-30.26-11.36-57.2c.34-1.63.74-3.3 1.2-5c12.41 2.36 25.2 4.14 38.21 5.32c7.84 10.59 16.43 20.76 25.54 30.32c-16.3 4.98-30.74 10.58-42.54 16.37l-.05-.01Z"></path></svg>
